<svg width="350" height="350" viewBox="0 0 350 350" fill="none" xmlns="http://www.w3.org/2000/svg">
<path d="M75.5943 79.149C107.223 62.9697 140.052 55 173.98 55C174.22 55 174.46 55 174.7 55C174.94 55 175.18 55 175.42 55C209.349 55 242.177 62.9697 273.806 79.149L275.746 81.1989C288.655 111.618 296.025 142.646 296.385 174.155C296.385 174.755 296.385 175.235 296.385 175.845V178.015C296.265 208.314 289.745 239.222 275.746 270.611L273.566 272.661C240.617 287.27 207.659 294.63 174.7 295C141.742 294.63 108.783 287.27 75.8343 272.661L73.6544 270.611C59.655 239.222 53.1353 208.314 53.0153 178.015V175.845C53.0153 175.235 53.0153 174.755 53.0153 174.155C53.3752 142.646 60.7449 111.618 73.6544 81.1989L75.5943 79.149ZM174.7 63.2097C174.46 63.2097 174.22 63.2097 173.98 63.2097C141.742 63.2097 110.723 70.6893 80.6641 85.7787C68.4646 114.757 61.5849 144.216 61.2249 174.275C60.7449 204.094 66.8947 234.633 80.5341 265.781C111.923 279.421 143.311 286.42 174.7 286.79C206.089 286.42 237.478 279.421 268.856 265.781C282.506 234.633 288.655 204.094 288.175 174.275C287.816 144.216 280.936 114.757 268.736 85.7787C238.678 70.6893 207.659 63.2097 175.42 63.2097C175.18 63.2097 174.94 63.2097 174.7 63.2097Z" fill="#003399"/>
<path fill-rule="evenodd" clip-rule="evenodd" d="M176.87 242.002C175.18 218.943 176.27 194.914 169.39 172.945C162.991 152.426 138.722 140.716 138.242 118.137C137.762 100.508 151.161 80.109 176.27 80.109C199.809 79.989 214.419 97.1283 216.109 116.207C218.158 138.296 191.36 153.146 184.36 174.155C177.11 195.644 179.17 219.423 176.87 242.002Z" fill="#003399"/>
<path fill-rule="evenodd" clip-rule="evenodd" d="M186.17 236.442C185.2 216.403 185.2 197.214 190.76 180.185C196.909 160.876 209.709 144.576 229.268 139.267C242.667 135.647 262.337 151.336 259.207 167.395C256.547 180.315 243.627 195.524 222.868 197.214C213.209 198.054 209.109 205.784 203.069 210.254C230.108 207.594 247.617 196.974 259.807 185.865C261.617 195.274 262.827 211.093 255.457 216.523C240.977 226.783 227.578 218.453 210.549 223.283C201.019 226.063 195.099 232.103 186.17 236.442Z" fill="#003399"/>
<path fill-rule="evenodd" clip-rule="evenodd" d="M167.701 236.442C168.78 216.403 168.66 197.214 163.231 180.185C157.071 160.876 144.281 144.576 124.722 139.267C111.323 135.647 91.5237 151.336 94.7835 167.395C97.4434 180.315 110.353 195.524 131.122 197.214C140.662 198.054 144.881 205.784 150.921 210.254C123.752 207.594 106.373 196.974 94.1836 185.865C92.3736 195.274 91.1637 211.093 98.5234 216.523C113.013 226.783 126.412 218.453 143.431 223.283C152.971 226.063 158.761 232.103 167.701 236.442Z" fill="#003399"/>
<path fill-rule="evenodd" clip-rule="evenodd" d="M232.038 266.261V263.001L234.458 262.401L232.038 258.781V252.742L242.907 267.831L239.048 268.801L236.388 265.051L232.038 266.261ZM232.038 252.742V258.781L230.348 256.362L229.628 263.611L232.038 263.001V266.261L229.268 266.871L228.778 271.331L224.918 272.301L227.458 252.622L231.318 251.652L232.038 252.742ZM196.069 276.771V273.631H196.909C198.239 273.511 199.089 273.391 199.449 273.261C199.929 273.141 200.409 272.781 200.659 272.421C201.019 271.941 201.139 271.451 201.139 270.851C201.019 270.251 200.899 269.761 200.529 269.401C200.289 269.041 199.809 268.801 199.329 268.681C198.849 268.561 197.759 268.561 196.069 268.681V265.541C197.029 265.541 197.639 265.421 197.879 265.421C198.479 265.301 198.969 264.931 199.329 264.571C199.689 264.211 199.809 263.731 199.689 263.121C199.689 262.521 199.449 262.041 199.089 261.791C198.849 261.431 198.359 261.191 197.639 261.191C197.399 261.191 196.909 261.191 196.069 261.311V258.172C197.399 258.052 198.359 258.052 198.969 258.172C199.689 258.172 200.409 258.422 201.019 258.781C201.619 259.021 202.099 259.501 202.589 260.101C202.949 260.711 203.189 261.431 203.309 262.281C203.429 263.121 203.189 263.971 202.829 264.691C202.469 265.421 201.859 266.021 201.019 266.501C202.219 266.751 203.189 267.231 203.789 267.951C204.519 268.681 204.879 269.521 204.999 270.611C204.999 271.451 204.879 272.301 204.639 273.141C204.279 273.991 203.789 274.591 203.189 275.201C202.469 275.681 201.739 276.041 200.779 276.281C200.169 276.401 198.599 276.521 196.309 276.771H196.069ZM218.878 266.621L222.628 267.111C222.388 269.161 221.778 270.851 220.698 272.061C219.608 273.141 218.038 273.991 216.108 274.351C213.689 274.711 211.519 274.231 209.709 272.901C207.779 271.451 206.689 269.401 206.089 266.501C205.599 263.491 205.969 260.951 207.289 259.021C208.499 257.092 210.429 255.882 212.969 255.402C215.259 255.032 217.068 255.402 218.758 256.482C219.728 257.092 220.568 258.052 221.178 259.501L217.678 260.951C217.318 260.101 216.708 259.381 215.988 259.021C215.139 258.542 214.299 258.422 213.329 258.542C211.999 258.782 211.039 259.501 210.309 260.591C209.589 261.791 209.469 263.371 209.829 265.541C210.309 267.831 211.039 269.401 211.999 270.251C212.969 271.091 214.179 271.451 215.499 271.211C216.468 270.971 217.198 270.491 217.798 269.761C218.398 269.041 218.758 267.951 218.878 266.621ZM196.069 258.172V261.311C195.589 261.311 195.099 261.431 194.499 261.431L192.329 261.681L192.689 265.901L195.219 265.661C195.459 265.661 195.829 265.661 196.069 265.541V268.681C196.069 268.681 196.069 268.681 195.949 268.681L193.049 268.921L193.409 273.871L196.069 273.631V276.771L190.03 277.371L188.34 258.902L195.709 258.302C195.829 258.172 195.949 258.172 196.069 258.172ZM172.77 270.371V267.231C173.61 267.231 174.1 267.111 174.46 266.991C174.94 266.871 175.3 266.501 175.67 266.141C175.91 265.661 176.03 265.181 176.03 264.691C176.15 263.971 175.91 263.491 175.54 263.001C175.18 262.521 174.7 262.281 174.1 262.161C173.73 262.161 173.37 262.041 172.77 262.041V258.902C174.58 258.902 175.67 259.021 176.27 259.261C177.36 259.501 178.2 260.101 178.93 261.071C179.65 262.041 180.01 263.241 179.89 264.691C179.89 265.781 179.65 266.751 179.29 267.591C178.8 268.311 178.32 268.921 177.72 269.401C176.99 269.761 176.39 270.001 175.67 270.251C174.94 270.371 173.98 270.371 172.77 270.371ZM172.77 258.902V262.041C172.41 262.041 171.92 262.041 171.32 262.041L169.51 261.921V267.231H171.44C171.92 267.231 172.41 267.231 172.77 267.231V270.371C172.53 270.371 172.16 270.371 171.8 270.371H169.39L169.27 277.371L165.521 277.251L165.891 258.781L171.8 258.902C172.16 258.902 172.53 258.902 172.77 258.902ZM137.882 268.561V262.881C138.972 263.121 139.692 263.121 140.052 263.121C140.542 263.001 140.902 262.881 141.262 262.521C141.502 262.161 141.742 261.791 141.862 261.191C141.982 260.591 141.862 260.101 141.622 259.621C141.382 259.141 140.902 258.901 140.292 258.662C140.052 258.542 139.212 258.422 137.882 258.172V255.032L139.452 255.282C141.382 255.642 142.712 256.002 143.552 256.482C144.402 256.972 145.002 257.692 145.361 258.662C145.731 259.501 145.851 260.591 145.611 261.681C145.361 263.001 144.762 264.091 143.802 264.811C142.952 265.541 141.622 265.901 139.932 265.901C140.662 266.501 141.262 267.111 141.622 267.711C142.102 268.441 142.592 269.521 143.192 271.091L144.762 275.081L140.412 274.231L138.482 269.761C138.242 269.401 138.122 268.921 137.882 268.561ZM148.501 257.092L152.121 257.452L151.281 267.471C151.161 269.041 151.161 270.131 151.161 270.491C151.281 271.331 151.641 271.941 152.121 272.421C152.731 273.021 153.451 273.261 154.541 273.391C155.631 273.511 156.471 273.261 156.951 272.901C157.561 272.541 157.921 272.061 158.161 271.451C158.281 270.851 158.401 269.761 158.521 268.311L159.371 258.052L163.111 258.422L162.271 268.071C162.151 270.371 161.901 271.941 161.541 272.781C161.301 273.631 160.821 274.471 160.331 274.951C159.731 275.561 158.891 276.041 157.921 276.281C157.071 276.651 155.871 276.651 154.421 276.521C152.611 276.401 151.281 276.041 150.431 275.561C149.591 275.081 148.861 274.471 148.381 273.871C147.901 273.141 147.661 272.421 147.541 271.701C147.421 270.611 147.421 269.041 147.541 266.991L148.501 257.092ZM119.173 262.521L119.893 259.501L127.742 261.551L125.812 268.681C124.842 269.281 123.632 269.641 121.942 269.761C120.373 269.881 118.933 269.761 117.483 269.401C115.543 268.921 113.983 268.071 112.893 266.991C111.683 265.781 110.963 264.331 110.603 262.761C110.353 261.071 110.353 259.381 110.843 257.692C111.323 255.882 112.163 254.312 113.373 252.982C114.463 251.782 115.913 251.052 117.603 250.692C118.933 250.332 120.493 250.452 122.192 250.932C124.362 251.532 126.052 252.382 127.012 253.712C127.982 254.912 128.462 256.482 128.342 258.172L124.602 257.932C124.602 256.972 124.362 256.122 123.752 255.402C123.152 254.792 122.432 254.192 121.342 253.952C119.773 253.592 118.443 253.712 117.233 254.432C116.033 255.162 115.183 256.602 114.583 258.542C113.983 260.711 114.103 262.401 114.703 263.731C115.423 265.051 116.513 265.901 117.963 266.261C118.803 266.501 119.533 266.501 120.373 266.501C121.223 266.381 121.942 266.141 122.672 265.901L123.272 263.611L119.173 262.521ZM137.882 255.032L131.602 253.952L128.462 272.181L132.082 272.781L133.412 265.181L134.262 265.301C135.102 265.421 135.712 265.661 136.072 265.781C136.432 266.021 136.672 266.381 137.032 266.751C137.152 267.111 137.522 267.711 137.882 268.561V262.881C137.522 262.881 137.152 262.761 136.672 262.761L134.022 262.281L134.742 257.692L137.642 258.172C137.762 258.172 137.882 258.172 137.882 258.172V255.032Z" fill="#003399"/>
</svg>
