<svg width="350" height="350" viewBox="0 0 350 350" fill="none" xmlns="http://www.w3.org/2000/svg">
<path fill-rule="evenodd" clip-rule="evenodd" d="M55.2015 55H129.527C125.642 61.6651 122.712 76.6446 130.222 110.284C136.9 140.188 156.214 171.374 176.373 196.031L151.049 216.817L55.2015 96.3947V55L55.2015 55ZM163.738 55H294.587V86.7037C284.46 80.7882 266.005 75.0772 238.908 85.9131C195.183 103.414 191.435 154.636 191.435 154.636C167.241 125.413 151.335 77.5033 163.738 55V55ZM294.587 128.766V223.141C264.86 234.427 223.152 205.081 212.67 170.243C197.486 119.757 233.279 101.533 258.89 106.535C278.04 110.27 289.149 121.679 294.587 128.766V128.766ZM294.587 238.625V294.399H214.388L230.471 281.192C219.976 282.473 199.367 277.539 189.336 264.931L161.108 229.465L186.909 208.271C202.775 225.758 217.877 238.311 226.409 242.087C244.701 250.156 265.296 254.041 294.587 238.625ZM169.613 294.399H82.012L136.587 249.584C141.058 255.199 145.365 260.624 149.467 265.763C157.509 275.876 164.256 285.84 169.613 294.399ZM56.5509 294.399H55.2015V147.317C76.042 173.514 102.675 206.976 126.528 236.948L56.5509 294.399V294.399Z" fill="#EC6722"/>
</svg>
