<svg width="350" height="350" viewBox="0 0 350 350" fill="none" xmlns="http://www.w3.org/2000/svg">
<g clip-path="url(#clip0_2_46)">
<path d="M258.404 55H91.6577C71.4104 55 55 71.7983 55 92.5205V92.915V257.49C55 278.01 71.1067 294.697 91.0907 295H258.313C278.56 295 294.981 278.212 294.981 257.49L295.052 92.5205C295.052 71.7983 278.651 55 258.404 55ZM111.47 275.775L102.379 275.876C91.3641 275.876 82.435 266.834 82.435 255.679L82.3844 254.091V101.744L82.4452 93.5319C82.8602 82.7409 91.0705 74.0637 101.812 74.0637H120.308C137.072 74.0637 150.658 88.6269 150.658 105.789C150.658 114.284 147.328 121.991 141.932 127.594L94.7454 175.43L138.976 220.424C144.675 226.3 148.117 234.006 148.117 242.451C148.117 260.857 131.717 275.775 111.47 275.775V275.775ZM247.44 275.623L164.983 275.592C164.983 275.592 174.509 255.012 174.509 242.269C174.509 226.725 169.316 212.849 161.177 203.666L132.972 174.944L161.754 145.231C170.328 137.191 176.018 122.911 176.018 106.639C176.018 93.7544 172.454 82.3465 166.714 74.0637H186.688C203.453 74.0637 217.049 88.6269 217.049 105.789C217.049 114.284 213.718 121.991 208.322 127.594L162.037 174.934L258.171 272.862C255.124 274.773 251.287 275.623 247.44 275.623V275.623ZM267.576 245.05L198.685 174.904L231.495 141.591C238.167 133.247 242.409 120.686 242.409 106.639C242.409 93.6735 238.795 81.9723 233.004 73.6895L247.683 74.1345C258.698 74.1345 267.627 83.1758 267.627 94.3308L267.576 245.05V245.05Z" fill="#00529C"/>
</g>
<defs>
<clipPath id="clip0_2_46">
<rect width="240.93" height="240" fill="white" transform="translate(55 55)"/>
</clipPath>
</defs>
</svg>
