<svg width="350" height="350" viewBox="0 0 350 350" fill="none" xmlns="http://www.w3.org/2000/svg">
<path fill-rule="evenodd" clip-rule="evenodd" d="M56.5913 133.821H294.409C297.752 133.821 300.486 136.605 300.486 140.01V159.106H270.723C269.16 141.813 190.783 138.128 177.239 138.026C155.406 137.859 80.2051 143.005 80.2051 158.77V159.106H50.5142V140.01C50.5142 136.605 53.248 133.821 56.5913 133.821V133.821Z" fill="#FF0000"/>
<path fill-rule="evenodd" clip-rule="evenodd" d="M80.1838 187.374H50.5142V161.7H80.1993C80.1741 169.744 80.0658 179.608 80.1838 187.374ZM300.486 161.7V187.374H270.791C271.025 179.347 270.499 169.799 270.691 161.7H300.486Z" fill="#0000FF"/>
<path fill-rule="evenodd" clip-rule="evenodd" d="M300.486 189.968V208.99C300.486 212.395 297.752 215.179 294.409 215.179H56.5913C53.248 215.179 50.5142 212.395 50.5142 208.99V189.968H80.3831C84.0514 205.507 145.65 211.612 176.467 211.784C193.826 211.881 266.094 206.353 270.526 189.968H300.486V189.968Z" fill="#F9CD09"/>
<path fill-rule="evenodd" clip-rule="evenodd" d="M176.872 142.561C193.799 142.718 266.303 150.096 265.635 159.255C265.076 166.945 266.214 181.856 265.635 189.546C264.964 198.458 193.285 206.251 176.413 206.107C158.227 205.954 85.6148 199.927 85.3169 188.72C85.1137 181.015 85.3169 167.811 85.3169 160.103C85.3169 148.664 158.405 142.393 176.872 142.561V142.561ZM176.796 149.581C159.36 149.447 90.3492 153.661 90.3492 162.572C90.3492 168.578 90.1615 180.439 90.3492 186.444C90.6278 195.399 159.192 198.97 176.363 199.09C192.294 199.2 259.974 194.029 260.609 187.085C261.154 181.094 260.08 168.129 260.609 162.136C261.237 155.002 192.78 149.701 176.796 149.581V149.581Z" fill="#E6252D"/>
<path fill-rule="evenodd" clip-rule="evenodd" d="M147.978 175.328C148.868 175.729 148.698 177.89 147.599 180.137C146.5 182.383 144.879 183.886 143.987 183.485C143.097 183.082 143.267 180.922 144.366 178.674C145.465 176.429 147.086 174.925 147.978 175.328V175.328ZM208.304 175.522C209.194 175.925 209.026 178.085 207.927 180.331C206.828 182.576 205.205 184.08 204.315 183.679C203.423 183.276 203.593 181.118 204.692 178.87C205.791 176.624 207.414 175.121 208.304 175.522V175.522ZM237.918 174.89C238.405 175.26 237.966 176.671 236.939 178.031C235.911 179.391 234.677 180.199 234.191 179.831C233.704 179.463 234.143 178.052 235.17 176.692C236.198 175.332 237.43 174.522 237.918 174.89ZM238.543 171.98C235.157 171.721 232.889 174.075 231.701 176.398C230.759 178.24 230.479 180.889 231.152 183.1C230.177 183.89 228.958 184.572 227.021 184.96C226.06 185.151 225.529 184.423 225.539 183.754C225.562 181.829 225.769 180.217 226.321 178.411C226.547 177.665 227.319 177.919 227.58 177.287C228.118 175.977 228.184 174.712 226.458 174.919C225.351 175.051 224.15 175.22 224.107 173.718C224.067 172.253 225.854 171.471 225.587 171.343C224.601 170.868 223.767 171.339 222.736 170.971C222.447 170.868 222.683 170.211 222.393 170.113C221.998 169.983 221.304 170.399 221.078 170.746C220.578 171.513 220.621 172.213 220.249 173.118C219.94 173.875 219.907 174.718 219.737 175.52C219.199 177.097 215.788 181.984 213.282 183.258C211.874 183.973 210.988 183.344 211.423 181.871C212.005 179.905 213.938 175.119 215.194 171.744C213.965 171.773 212.876 171.87 211.647 171.899C211.504 172.327 211.291 172.62 211.15 173.048C208.397 171.283 206.722 171.959 204.224 173.759C202.363 175.1 200.731 177.126 199.853 179.554C199.505 180.517 199.313 181.493 199.288 182.408C197.767 182.958 196.256 183.774 194.9 183.572C194.569 183.522 194.343 183.016 194.418 182.689C194.873 180.726 195.833 178.911 196.425 176.985C196.796 175.776 197.537 174.536 197.307 173.29C196.997 171.614 194.861 171.564 193.697 172.166C192.71 172.68 191.955 173.577 190.971 174.094C190.773 174.197 190.493 174.082 190.328 173.933C189.905 173.55 189.703 172.959 189.285 172.569C188.916 172.224 188.496 171.866 188.001 171.765C187.397 171.639 186.728 171.688 186.157 171.924C184.95 172.428 184.089 173.802 182.788 173.933C182.225 173.991 182.587 172.763 182.225 172.327C181.357 171.275 180.523 171.639 179.499 172.085C177.396 172.999 175.316 173.972 173.229 174.919C173.434 175.342 173.61 175.782 173.751 176.237C174.585 175.95 175.446 175.586 176.292 175.379C176.68 175.284 177.154 175.084 177.493 175.299C177.801 175.493 177.923 175.995 177.814 176.344C176.673 180.025 175.14 183.572 173.803 187.188C175.194 187.161 176.584 187.133 177.975 187.108C179.232 183.867 180.109 180.453 181.746 177.388C182.04 176.836 182.895 176.623 183.51 176.745C183.932 176.83 184.077 177.444 184.152 177.868C184.245 178.399 184.164 178.965 183.992 179.476C183.115 182.061 182.013 184.562 181.024 187.108C182.549 187.079 184.152 187.215 185.675 187.188C187.146 183.813 187.724 180.354 189.525 177.146C189.75 176.747 190.932 176.617 191.371 176.745C191.663 176.83 191.996 177.169 191.932 177.467C191.543 179.273 190.547 180.901 190.088 182.689C189.874 183.52 189.694 184.435 189.928 185.258C190.123 185.955 190.646 186.622 191.292 186.947C191.841 187.223 192.567 187.102 193.136 186.866C195.295 185.969 197.295 184.737 199.362 183.638C199.723 185.961 201.391 187.554 204.568 186.849C205.677 186.601 206.28 185.876 207.31 185.39C207.828 187.054 208.976 187.736 210.821 186.977C215.378 185.103 218.048 181.846 221.418 176.962C221.962 177.084 223.032 176.776 223.575 176.783C222.995 178.541 219.402 184.814 223.157 186.703C224.206 187.23 225.009 187.058 226.164 186.849C228.759 186.374 230.359 185.272 231.607 184.239C232.239 185.483 233.255 186.475 234.721 186.924C237.709 187.843 241.126 186.26 243.26 185.316C244.397 187.283 247.33 187.645 249.046 187.019C250.854 186.36 252.487 185.208 253.932 183.931C254.232 183.665 254.199 182.991 253.899 182.728C253.616 182.482 253.146 182.921 252.846 183.146C251.598 184.078 249.097 186.432 247.686 184.456C247.056 183.568 247.475 182.073 248.1 180.377C248.71 178.723 249.298 176.584 249.894 174.925C250.747 174.856 251.703 174.947 252.554 174.877C252.922 173.84 253.079 173.015 253.448 171.978C252.873 171.932 252.086 171.992 251.511 171.945C252.043 169.169 253.187 166.342 254.156 163.566C252.85 163.591 251.753 163.668 250.445 163.694C249.528 166.393 248.807 169.039 247.557 171.74C246.702 171.765 245.792 171.843 244.939 171.868C244.713 172.877 244.486 173.887 244.26 174.896C244.914 174.871 245.831 174.846 246.485 174.821C245.655 177.987 244.751 180.844 242.902 183.297C242.244 184.169 241.104 184.667 240.034 184.886C236.761 185.558 235.499 184.497 234.979 183.01C236.362 181.85 237.736 181.302 238.98 179.996C240.986 177.894 243.449 172.354 238.543 171.98V171.98ZM124.763 159.65C119.566 160.249 111.866 160.82 107.468 163.721C104.879 165.426 102.558 168.702 104.881 172.036C107.151 175.293 111.206 173.914 112.847 171.748C110.97 171.502 109.472 171.151 109.354 169.804C108.818 163.682 114.406 164.949 119.765 163.198C116.983 169.789 114.478 181.542 107.387 182.993C102.231 184.049 99.8644 181.767 98.6609 178.552C95.8033 184.061 99.8895 186.574 103.558 187.139C106.948 187.664 111.289 185.545 113.686 183.032C115.381 181.927 117.074 180.666 118.616 179.234C119.02 178.858 124.672 174.526 124.151 178.111C123.691 181.269 122.439 183.572 121.503 186.626C122.894 186.651 124.285 186.678 125.674 186.705C126.69 183.679 127.439 180.55 128.723 177.628C128.948 177.119 129.536 176.743 130.087 176.663C130.598 176.592 131.343 176.747 131.531 177.227C131.862 178.076 131.391 179.153 131.15 180.031C130.759 181.466 128.596 186.141 131.407 186.5C134.168 186.851 137.271 184.872 138.908 183.541C139.136 184.932 139.868 186.143 141.33 186.841C142.338 187.318 143.586 187.011 144.672 186.763C145.554 186.56 146.277 185.932 147.08 185.518C146.937 187.535 148.86 187.296 150.147 186.684C153.057 185.301 154.682 184.328 156.669 183.665C156.464 183.307 156.282 182.935 156.123 182.549C154.694 182.914 153.285 183.607 151.821 183.495C151.331 183.456 151.2 182.559 151.354 182.094C153.407 175.925 156.017 169.956 158.347 163.885C157.132 163.965 156.197 163.965 154.978 164.042C154.02 166.635 152.78 169.307 151.821 171.901C147.247 171.062 142.988 172.343 140.011 178.047C139.374 179.265 138.923 180.691 138.84 182.063C137.805 182.743 136.84 183.443 135.621 183.747C135.168 183.861 134.82 183.15 134.899 182.689C135.164 181.156 135.696 179.686 136.213 178.213C136.565 177.208 137.869 174.282 137.385 173.29C136.551 171.573 135.329 171.583 134.088 172.093C132.494 172.749 130.871 174.232 130.006 173.933C128.733 173.493 129.095 171.527 127.183 171.748C126.58 171.819 125.966 172.064 125.434 172.327C122.706 173.674 120.117 175.603 117.511 177.262C120.013 172.443 122.387 166.024 124.763 159.65Z" fill="#0000FF"/>
<path d="M164.801 169.63H164.805C167.384 169.632 169.727 170.686 171.423 172.385V172.387C173.118 174.086 174.171 176.431 174.171 179.011V179.015C174.171 181.6 173.118 183.946 171.422 185.645H171.42C169.723 187.343 167.384 188.397 164.805 188.397H164.801C162.22 188.397 159.877 187.343 158.182 185.644C156.485 183.944 155.433 181.6 155.433 179.017V179.011C155.433 176.429 156.485 174.082 158.182 172.383C159.879 170.686 162.22 169.632 164.799 169.63H164.801V169.63ZM164.805 170.775H164.799C162.535 170.775 160.478 171.701 158.991 173.193C157.499 174.685 156.574 176.745 156.574 179.011V179.017C156.576 181.284 157.499 183.344 158.989 184.836C160.478 186.327 162.537 187.254 164.801 187.254H164.805C167.068 187.252 169.125 186.327 170.615 184.836H170.613C172.104 183.344 173.029 181.284 173.029 179.015V179.011C173.027 176.745 172.104 174.685 170.617 173.193H170.615C169.125 171.701 167.068 170.775 164.805 170.775V170.775Z" fill="#FF0000"/>
<path fill-rule="evenodd" clip-rule="evenodd" d="M164.801 171.916C168.717 171.916 171.89 175.094 171.89 179.013C171.89 182.933 168.717 186.112 164.801 186.112C160.887 186.112 157.714 182.933 157.714 179.013C157.714 175.094 160.887 171.916 164.801 171.916V171.916ZM164.801 173.377C167.91 173.377 170.431 175.902 170.431 179.013C170.431 182.127 167.91 184.652 164.801 184.652C161.694 184.652 159.175 182.127 159.175 179.013C159.175 175.902 161.694 173.377 164.801 173.377V173.377Z" fill="#FF0000"/>
<path fill-rule="evenodd" clip-rule="evenodd" d="M164.801 174.759C167.148 174.759 169.051 176.663 169.051 179.013C169.051 181.364 167.148 183.27 164.801 183.27C162.454 183.27 160.552 181.364 160.552 179.013C160.552 176.663 162.454 174.759 164.801 174.759V174.759Z" fill="#FF0000"/>
</svg>
