<svg width="350" height="350" viewBox="0 0 350 350" fill="none" xmlns="http://www.w3.org/2000/svg">
<g clip-path="url(#clip0_2_49)">
<path d="M234.258 179.374H242.761V208.24H234.258V179.374ZM213.331 208.24V188.335C213.331 186.704 213.302 185.142 213.244 183.637C213.185 182.141 213.11 180.723 212.993 179.374H220.788L221.097 184.538C221.837 182.765 223.02 181.425 224.64 180.513C226.251 179.604 228.27 179.152 230.677 179.152H230.931L230.902 186.733C230.386 186.695 230.01 186.666 229.756 186.646C229.494 186.626 229.261 186.618 229.057 186.618C226.834 186.618 225.097 187.156 223.844 188.22C222.583 189.282 221.953 190.769 221.953 192.656V208.24H213.331V208.24ZM200.475 179.374H208.978V208.24H200.475V179.374V179.374ZM186.696 208.24L186.416 204.118C185.367 205.671 184.105 206.842 182.631 207.628C181.154 208.413 179.487 208.807 177.622 208.807C174.079 208.807 171.206 207.435 168.991 204.693C166.788 201.952 165.681 198.321 165.681 193.816C165.681 189.282 166.759 185.651 168.924 182.927C171.089 180.208 173.951 178.844 177.514 178.844C179.446 178.844 181.136 179.218 182.573 179.958C184.018 180.694 185.259 181.825 186.299 183.341V166.827H194.744V202.432C194.744 203.888 194.764 205.076 194.811 205.979C194.86 206.888 194.939 207.645 195.026 208.24H186.696V208.24ZM174.3 193.865C174.3 196.845 174.825 199.155 175.865 200.792C176.902 202.432 178.368 203.246 180.242 203.246C182.153 203.246 183.68 202.412 184.796 200.735C185.912 199.057 186.474 196.767 186.474 193.865C186.474 190.95 185.912 188.64 184.796 186.963C183.68 185.277 182.153 184.434 180.242 184.434C178.368 184.434 176.902 185.257 175.865 186.917C174.825 188.574 174.3 190.893 174.3 193.865ZM134.116 208.24V184.912C134.116 184.089 134.098 183.226 134.049 182.325C133.999 181.425 133.923 180.438 133.836 179.374H141.93L142.105 183.703C143.201 181.96 144.512 180.685 146.019 179.88C147.522 179.074 149.367 178.672 151.549 178.672C154.772 178.672 157.161 179.575 158.723 181.384C160.285 183.185 161.071 185.947 161.071 189.656V208.24H152.715V190.806C152.715 188.649 152.336 187.107 151.587 186.169C150.841 185.237 149.629 184.768 147.939 184.768C146.307 184.768 144.987 185.286 143.996 186.33C142.997 187.366 142.502 188.747 142.502 190.47V208.24H134.116V208.24ZM53.5159 208.24V184.912C53.5159 183.876 53.4955 182.909 53.4576 182C53.4168 181.088 53.3585 180.216 53.2915 179.374H61.3395L61.561 183.703C62.6595 181.96 63.9591 180.685 65.4743 179.88C66.9778 179.074 68.8223 178.672 70.996 178.672C73.2018 178.672 75.055 179.152 76.5789 180.122C78.0912 181.088 79.1984 182.486 79.8978 184.319C80.8506 182.371 82.0919 180.944 83.6246 180.032C85.1601 179.123 87.1008 178.672 89.4581 178.672C92.6837 178.672 95.0789 179.575 96.6523 181.384C98.2258 183.185 99.0096 185.947 99.0096 189.656V208.24H90.5653V190.806C90.5653 188.649 90.1865 187.107 89.4406 186.169C88.6917 185.237 87.4796 184.768 85.7895 184.768C84.1607 184.768 82.8495 185.286 81.8792 186.33C80.8972 187.366 80.4135 188.747 80.4135 190.47V208.24H71.9663V190.806C71.9663 188.669 71.5991 187.135 70.8619 186.186C70.1218 185.237 68.9301 184.768 67.2779 184.768C65.6491 184.768 64.3583 185.286 63.3967 186.313C62.4351 187.345 61.9602 188.726 61.9602 190.47V208.24H53.5159V208.24ZM121.86 205.225C120.155 206.693 116.825 208.269 114.532 208.778C113.655 208.98 112.696 209.078 111.659 209.078C109.202 209.078 107.148 208.223 105.49 206.52C103.835 204.811 103.01 202.633 103.01 199.987C103.01 197.861 103.433 196.134 104.275 194.794C105.123 193.445 106.315 192.386 107.862 191.612C109.392 190.844 111.3 190.289 113.567 189.961C115.837 189.635 118.191 189.388 120.624 189.238V189.08C120.624 182.176 110.653 183.036 106.387 185.988L104.913 180.547C108.244 179.002 111.525 178.22 115.601 178.22C122.749 178.22 128.786 181.603 128.786 189.69V208.301H121.86V205.225V205.225ZM121.19 199.592V194.026C119.902 194.149 118.497 194.313 116.991 194.518C115.484 194.73 114.342 194.975 113.561 195.251C112.608 195.585 111.874 196.086 111.376 196.727C110.869 197.38 110.615 198.226 110.615 199.285C110.615 206.595 119.261 204.221 121.19 199.592V199.592Z" fill="#0061AE"/>
<path fill-rule="evenodd" clip-rule="evenodd" d="M147.674 160.984C150.281 163.861 155.136 171.666 160.882 171.183C174.347 170.055 182.013 155.679 198.637 156.706C205.464 157.126 208.681 168.435 215.452 169.411C226.123 170.944 236.35 154.741 253.743 155.671C260.897 156.053 263.851 167.918 270.978 168.602C277.625 169.241 288.033 159.94 297.18 155.118C294.852 151.243 290.522 145.196 285.915 144.891C276.844 144.287 269.589 155.728 261.61 153.732C256.969 152.569 251.677 139.974 244.028 140C229.87 140.046 220.1 153.887 207.579 154.98C200.478 155.602 197.06 140.003 187.549 141.436C174.53 143.398 161.226 153.99 147.674 160.984V160.984Z" fill="url(#paint0_linear_2_49)"/>
</g>
<defs>
<linearGradient id="paint0_linear_2_49" x1="157.112" y1="182.509" x2="287.25" y2="127.961" gradientUnits="userSpaceOnUse">
<stop stop-color="#F6AD02"/>
<stop offset="0.2" stop-color="#FFF000"/>
<stop offset="0.411765" stop-color="#F6AD02"/>
<stop offset="0.658824" stop-color="#FFF000"/>
<stop offset="0.788235" stop-color="#F6AD02"/>
<stop offset="1" stop-color="#FFF000"/>
</linearGradient>
<clipPath id="clip0_2_49">
<rect width="244" height="69.0776" fill="white" transform="translate(53 140)"/>
</clipPath>
</defs>
</svg>
